<svg xmlns="http://www.w3.org/2000/svg" xmlns:xlink="http://www.w3.org/1999/xlink" width="2000" zoomAndPan="magnify" viewBox="170 520 1140 460" height="2000" preserveAspectRatio="xMidYMid meet" version="1.0"><defs><g/><clipPath id="b209c7392e"><path d="M 184.722656 538.125 L 607 538.125 L 607 733 L 184.722656 733 Z M 184.722656 538.125 " clip-rule="nonzero"/></clipPath><clipPath id="2126c1abae"><path d="M 259 605 L 448 605 L 448 961.875 L 259 961.875 Z M 259 605 " clip-rule="nonzero"/></clipPath><clipPath id="1053e7350c"><path d="M 307 628 L 784.722656 628 L 784.722656 961.875 L 307 961.875 Z M 307 628 " clip-rule="nonzero"/></clipPath></defs><g clip-path="url(#b209c7392e)"><path fill="#c3921c" d="M 432.996094 538.144531 L 184.746094 681.1875 L 184.746094 732.972656 L 432.996094 589.929688 L 606.503906 690.105469 L 606.503906 638.320312 L 432.996094 538.144531 " fill-opacity="1" fill-rule="nonzero"/></g><g clip-path="url(#2126c1abae)"><path fill="#2e2f38" d="M 432.996094 605.921875 L 259.492188 706.101562 L 259.492188 961.90625 L 288.042969 961.90625 L 288.042969 706.101562 L 447.277344 614.164062 L 432.996094 605.921875 " fill-opacity="1" fill-rule="nonzero"/></g><g clip-path="url(#1053e7350c)"><path fill="#2e2f38" d="M 409.65625 787.339844 C 409.65625 771.488281 422.550781 758.59375 438.402344 758.59375 C 454.25 758.59375 467.144531 771.488281 467.144531 787.339844 L 467.144531 944.085938 L 409.65625 940.855469 Z M 486.949219 945.191406 L 486.949219 787.339844 C 486.949219 760.523438 465.210938 738.792969 438.402344 738.792969 C 411.59375 738.792969 389.859375 760.523438 389.859375 787.339844 L 389.859375 939.746094 L 332.464844 936.523438 L 332.464844 717.226562 L 474.003906 635.511719 L 461.3125 628.179688 L 307.082031 717.226562 L 307.082031 961.90625 L 784.753906 961.90625 L 486.949219 945.191406 " fill-opacity="1" fill-rule="nonzero"/></g><g fill="#000000" fill-opacity="1"><g transform="translate(628.052019, 808.389102)"><g><path d="M 55.5 -36.09375 C 60.101562 -35.09375 63.65625 -33.109375 66.15625 -30.140625 C 68.65625 -27.179688 69.90625 -23.367188 69.90625 -18.703125 C 69.90625 -12.703125 67.6875 -8.082031 63.25 -4.84375 C 58.8125 -1.613281 52.257812 0 43.59375 0 L 11.40625 0 L 11.40625 -70 L 41.59375 -70 C 49.394531 -70 55.445312 -68.429688 59.75 -65.296875 C 64.050781 -62.160156 66.203125 -57.726562 66.203125 -52 C 66.203125 -48.132812 65.25 -44.847656 63.34375 -42.140625 C 61.445312 -39.441406 58.832031 -37.425781 55.5 -36.09375 Z M 18.796875 -63.90625 L 18.796875 -38.5 L 41.09375 -38.5 C 46.757812 -38.5 51.125 -39.582031 54.1875 -41.75 C 57.257812 -43.914062 58.796875 -47.066406 58.796875 -51.203125 C 58.796875 -55.335938 57.257812 -58.488281 54.1875 -60.65625 C 51.125 -62.820312 46.757812 -63.90625 41.09375 -63.90625 Z M 43.5 -6.09375 C 49.769531 -6.09375 54.503906 -7.160156 57.703125 -9.296875 C 60.898438 -11.429688 62.5 -14.765625 62.5 -19.296875 C 62.5 -28.035156 56.164062 -32.40625 43.5 -32.40625 L 18.796875 -32.40625 L 18.796875 -6.09375 Z M 43.5 -6.09375 "/></g></g></g><g fill="#000000" fill-opacity="1"><g transform="translate(703.449112, 808.389102)"><g><path d="M 42 0.59375 C 35.0625 0.59375 28.773438 -0.953125 23.140625 -4.046875 C 17.515625 -7.148438 13.117188 -11.398438 9.953125 -16.796875 C 6.785156 -22.203125 5.203125 -28.269531 5.203125 -35 C 5.203125 -41.726562 6.785156 -47.789062 9.953125 -53.1875 C 13.117188 -58.59375 17.515625 -62.84375 23.140625 -65.9375 C 28.773438 -69.039062 35.0625 -70.59375 42 -70.59375 C 48.9375 -70.59375 55.1875 -69.0625 60.75 -66 C 66.3125 -62.9375 70.691406 -58.6875 73.890625 -53.25 C 77.097656 -47.8125 78.703125 -41.726562 78.703125 -35 C 78.703125 -28.269531 77.097656 -22.1875 73.890625 -16.75 C 70.691406 -11.3125 66.3125 -7.0625 60.75 -4 C 55.1875 -0.9375 48.9375 0.59375 42 0.59375 Z M 42 -6 C 47.53125 -6 52.53125 -7.25 57 -9.75 C 61.46875 -12.25 64.96875 -15.710938 67.5 -20.140625 C 70.03125 -24.578125 71.296875 -29.53125 71.296875 -35 C 71.296875 -40.46875 70.03125 -45.414062 67.5 -49.84375 C 64.96875 -54.28125 61.46875 -57.75 57 -60.25 C 52.53125 -62.75 47.53125 -64 42 -64 C 36.46875 -64 31.453125 -62.75 26.953125 -60.25 C 22.453125 -57.75 18.914062 -54.28125 16.34375 -49.84375 C 13.78125 -45.414062 12.5 -40.46875 12.5 -35 C 12.5 -29.53125 13.78125 -24.578125 16.34375 -20.140625 C 18.914062 -15.710938 22.453125 -12.25 26.953125 -9.75 C 31.453125 -7.25 36.46875 -6 42 -6 Z M 42 -6 "/></g></g></g><g fill="#000000" fill-opacity="1"><g transform="translate(787.345879, 808.389102)"><g><path d="M 59.203125 0 L 43.203125 -22.5 C 41.398438 -22.300781 39.53125 -22.203125 37.59375 -22.203125 L 18.796875 -22.203125 L 18.796875 0 L 11.40625 0 L 11.40625 -70 L 37.59375 -70 C 46.53125 -70 53.53125 -67.863281 58.59375 -63.59375 C 63.664062 -59.332031 66.203125 -53.46875 66.203125 -46 C 66.203125 -40.53125 64.816406 -35.910156 62.046875 -32.140625 C 59.285156 -28.378906 55.335938 -25.664062 50.203125 -24 L 67.296875 0 Z M 37.40625 -28.5 C 44.332031 -28.5 49.628906 -30.03125 53.296875 -33.09375 C 56.960938 -36.164062 58.796875 -40.46875 58.796875 -46 C 58.796875 -51.664062 56.960938 -56.015625 53.296875 -59.046875 C 49.628906 -62.078125 44.332031 -63.59375 37.40625 -63.59375 L 18.796875 -63.59375 L 18.796875 -28.5 Z M 37.40625 -28.5 "/></g></g></g><g fill="#000000" fill-opacity="1"><g transform="translate(859.643087, 808.389102)"><g><path d="M 84.09375 -70 L 84.09375 0 L 77 0 L 77 -56 L 49.5 -8.90625 L 46 -8.90625 L 18.5 -55.703125 L 18.5 0 L 11.40625 0 L 11.40625 -70 L 17.5 -70 L 47.90625 -18.09375 L 78 -70 Z M 84.09375 -70 "/></g></g></g><g fill="#000000" fill-opacity="1"><g transform="translate(955.139401, 808.389102)"><g><path d="M 11.40625 -70 L 18.796875 -70 L 18.796875 0 L 11.40625 0 Z M 11.40625 -70 "/></g></g></g><g fill="#000000" fill-opacity="1"><g transform="translate(985.338228, 808.389102)"><g><path d="M 69.90625 -70 L 69.90625 0 L 63.796875 0 L 18.796875 -56.796875 L 18.796875 0 L 11.40625 0 L 11.40625 -70 L 17.5 -70 L 62.59375 -13.203125 L 62.59375 -70 Z M 69.90625 -70 "/></g></g></g><g fill="#000000" fill-opacity="1"><g transform="translate(628.052019, 919.069365)"><g><path d="M 47.96875 0 L 35.734375 -17.6875 L 22.21875 -17.6875 L 22.21875 0 L 7.53125 0 L 7.53125 -63.484375 L 35 -63.484375 C 40.625 -63.484375 45.503906 -62.546875 49.640625 -60.671875 C 53.785156 -58.796875 56.976562 -56.132812 59.21875 -52.6875 C 61.457031 -49.238281 62.578125 -45.160156 62.578125 -40.453125 C 62.578125 -35.734375 61.441406 -31.664062 59.171875 -28.25 C 56.898438 -24.832031 53.679688 -22.21875 49.515625 -20.40625 L 63.75 0 Z M 47.703125 -40.453125 C 47.703125 -44.015625 46.550781 -46.75 44.25 -48.65625 C 41.957031 -50.5625 38.601562 -51.515625 34.1875 -51.515625 L 22.21875 -51.515625 L 22.21875 -29.375 L 34.1875 -29.375 C 38.601562 -29.375 41.957031 -30.34375 44.25 -32.28125 C 46.550781 -34.21875 47.703125 -36.941406 47.703125 -40.453125 Z M 47.703125 -40.453125 "/></g></g></g><g fill="#000000" fill-opacity="1"><g transform="translate(694.701637, 919.069365)"><g><path d="M 56.6875 -11.796875 L 56.6875 0 L 7.53125 0 L 7.53125 -63.484375 L 55.5 -63.484375 L 55.5 -51.6875 L 22.125 -51.6875 L 22.125 -37.90625 L 51.59375 -37.90625 L 51.59375 -26.484375 L 22.125 -26.484375 L 22.125 -11.796875 Z M 35.546875 -81.703125 L 50.78125 -81.703125 L 34.375 -68.65625 L 23.3125 -68.65625 Z M 35.546875 -81.703125 "/></g></g></g><g fill="#000000" fill-opacity="1"><g transform="translate(755.547751, 919.069365)"><g><path d="M 65.75 -63.484375 L 65.75 0 L 53.6875 0 L 22.03125 -38.546875 L 22.03125 0 L 7.53125 0 L 7.53125 -63.484375 L 19.671875 -63.484375 L 51.234375 -24.9375 L 51.234375 -63.484375 Z M 65.75 -63.484375 "/></g></g></g><g fill="#000000" fill-opacity="1"><g transform="translate(828.816986, 919.069365)"><g><path d="M 38.265625 1.09375 C 31.679688 1.09375 25.742188 -0.328125 20.453125 -3.171875 C 15.160156 -6.015625 11.015625 -9.929688 8.015625 -14.921875 C 5.023438 -19.910156 3.53125 -25.515625 3.53125 -31.734375 C 3.53125 -37.960938 5.023438 -43.570312 8.015625 -48.5625 C 11.015625 -53.550781 15.160156 -57.460938 20.453125 -60.296875 C 25.742188 -63.140625 31.679688 -64.5625 38.265625 -64.5625 C 44.859375 -64.5625 50.785156 -63.140625 56.046875 -60.296875 C 61.304688 -57.460938 65.445312 -53.550781 68.46875 -48.5625 C 71.488281 -43.570312 73 -37.960938 73 -31.734375 C 73 -25.515625 71.488281 -19.910156 68.46875 -14.921875 C 65.445312 -9.929688 61.304688 -6.015625 56.046875 -3.171875 C 50.785156 -0.328125 44.859375 1.09375 38.265625 1.09375 Z M 38.265625 -11.421875 C 42.015625 -11.421875 45.398438 -12.28125 48.421875 -14 C 51.453125 -15.726562 53.828125 -18.132812 55.546875 -21.21875 C 57.265625 -24.300781 58.125 -27.804688 58.125 -31.734375 C 58.125 -35.671875 57.265625 -39.179688 55.546875 -42.265625 C 53.828125 -45.347656 51.453125 -47.75 48.421875 -49.46875 C 45.398438 -51.1875 42.015625 -52.046875 38.265625 -52.046875 C 34.515625 -52.046875 31.128906 -51.1875 28.109375 -49.46875 C 25.085938 -47.75 22.710938 -45.347656 20.984375 -42.265625 C 19.265625 -39.179688 18.40625 -35.671875 18.40625 -31.734375 C 18.40625 -27.804688 19.265625 -24.300781 20.984375 -21.21875 C 22.710938 -18.132812 25.085938 -15.726562 28.109375 -14 C 31.128906 -12.28125 34.515625 -11.421875 38.265625 -11.421875 Z M 38.265625 -11.421875 "/></g></g></g><g fill="#000000" fill-opacity="1"><g transform="translate(905.350717, 919.069365)"><g><path d="M 68.5625 -63.484375 L 41.078125 0 L 26.578125 0 L -0.8125 -63.484375 L 15.046875 -63.484375 L 34.375 -18.140625 L 53.953125 -63.484375 Z M 68.5625 -63.484375 "/></g></g></g><g fill="#000000" fill-opacity="1"><g transform="translate(972.997813, 919.069365)"><g><path d="M 49.328125 -13.609375 L 19.859375 -13.609375 L 14.234375 0 L -0.8125 0 L 27.484375 -63.484375 L 41.984375 -63.484375 L 70.375 0 L 54.953125 0 Z M 44.703125 -24.75 L 34.640625 -49.0625 L 24.578125 -24.75 Z M 44.703125 -24.75 "/></g></g></g><g fill="#000000" fill-opacity="1"><g transform="translate(1042.458523, 919.069365)"><g><path d="M 20.671875 -51.515625 L 0.359375 -51.515625 L 0.359375 -63.484375 L 55.6875 -63.484375 L 55.6875 -51.515625 L 35.375 -51.515625 L 35.375 0 L 20.671875 0 Z M 20.671875 -51.515625 "/></g></g></g><g fill="#000000" fill-opacity="1"><g transform="translate(1098.498588, 919.069365)"><g><path d="M 7.53125 -63.484375 L 22.21875 -63.484375 L 22.21875 0 L 7.53125 0 Z M 7.53125 -63.484375 "/></g></g></g><g fill="#000000" fill-opacity="1"><g transform="translate(1128.241552, 919.069365)"><g><path d="M 38.265625 1.09375 C 31.679688 1.09375 25.742188 -0.328125 20.453125 -3.171875 C 15.160156 -6.015625 11.015625 -9.929688 8.015625 -14.921875 C 5.023438 -19.910156 3.53125 -25.515625 3.53125 -31.734375 C 3.53125 -37.960938 5.023438 -43.570312 8.015625 -48.5625 C 11.015625 -53.550781 15.160156 -57.460938 20.453125 -60.296875 C 25.742188 -63.140625 31.679688 -64.5625 38.265625 -64.5625 C 44.859375 -64.5625 50.785156 -63.140625 56.046875 -60.296875 C 61.304688 -57.460938 65.445312 -53.550781 68.46875 -48.5625 C 71.488281 -43.570312 73 -37.960938 73 -31.734375 C 73 -25.515625 71.488281 -19.910156 68.46875 -14.921875 C 65.445312 -9.929688 61.304688 -6.015625 56.046875 -3.171875 C 50.785156 -0.328125 44.859375 1.09375 38.265625 1.09375 Z M 38.265625 -11.421875 C 42.015625 -11.421875 45.398438 -12.28125 48.421875 -14 C 51.453125 -15.726562 53.828125 -18.132812 55.546875 -21.21875 C 57.265625 -24.300781 58.125 -27.804688 58.125 -31.734375 C 58.125 -35.671875 57.265625 -39.179688 55.546875 -42.265625 C 53.828125 -45.347656 51.453125 -47.75 48.421875 -49.46875 C 45.398438 -51.1875 42.015625 -52.046875 38.265625 -52.046875 C 34.515625 -52.046875 31.128906 -51.1875 28.109375 -49.46875 C 25.085938 -47.75 22.710938 -45.347656 20.984375 -42.265625 C 19.265625 -39.179688 18.40625 -35.671875 18.40625 -31.734375 C 18.40625 -27.804688 19.265625 -24.300781 20.984375 -21.21875 C 22.710938 -18.132812 25.085938 -15.726562 28.109375 -14 C 31.128906 -12.28125 34.515625 -11.421875 38.265625 -11.421875 Z M 38.265625 -11.421875 "/></g></g></g><g fill="#000000" fill-opacity="1"><g transform="translate(1204.775282, 919.069365)"><g><path d="M 65.75 -63.484375 L 65.75 0 L 53.6875 0 L 22.03125 -38.546875 L 22.03125 0 L 7.53125 0 L 7.53125 -63.484375 L 19.671875 -63.484375 L 51.234375 -24.9375 L 51.234375 -63.484375 Z M 65.75 -63.484375 "/></g></g></g></svg>